<mxfile host="app.diagrams.net" modified="2022-10-24T15:05:53.158Z" agent="5.0 (Windows NT 10.0; Win64; x64) AppleWebKit/537.36 (KHTML, like Gecko) Chrome/106.0.0.0 Safari/537.36" etag="Ny_O4j2Gt2Qsw1xMkGT0" version="20.4.0" type="github">
  <diagram id="YLg4R6m-OvGeNmiD-3ua" name="第 1 页">
    <mxGraphModel dx="1550" dy="779" grid="1" gridSize="10" guides="1" tooltips="1" connect="1" arrows="1" fold="1" page="1" pageScale="1" pageWidth="827" pageHeight="1169" math="0" shadow="0">
      <root>
        <mxCell id="0" />
        <mxCell id="1" parent="0" />
        <mxCell id="2LJcsksbGHfJUZrQtjWJ-1" value="" style="strokeWidth=2;html=1;shape=mxgraph.flowchart.annotation_1;align=left;pointerEvents=1;rotation=-90;fillColor=#dae8fc;strokeColor=#6c8ebf;" vertex="1" parent="1">
          <mxGeometry x="450" y="170" width="230" height="140" as="geometry" />
        </mxCell>
        <mxCell id="2LJcsksbGHfJUZrQtjWJ-2" value="全局执行上下文" style="rounded=0;whiteSpace=wrap;html=1;" vertex="1" parent="1">
          <mxGeometry x="515" y="300" width="100" height="40" as="geometry" />
        </mxCell>
        <mxCell id="2LJcsksbGHfJUZrQtjWJ-4" value="函数a执行上下文" style="rounded=0;whiteSpace=wrap;html=1;" vertex="1" parent="1">
          <mxGeometry x="515" y="250" width="100" height="40" as="geometry" />
        </mxCell>
        <mxCell id="2LJcsksbGHfJUZrQtjWJ-5" value="函数b执行上下文" style="rounded=0;whiteSpace=wrap;html=1;" vertex="1" parent="1">
          <mxGeometry x="515" y="200" width="100" height="40" as="geometry" />
        </mxCell>
        <mxCell id="2LJcsksbGHfJUZrQtjWJ-6" value="函数c执行上下文" style="rounded=0;whiteSpace=wrap;html=1;fillColor=#dae8fc;strokeColor=#6c8ebf;" vertex="1" parent="1">
          <mxGeometry x="515" y="140" width="100" height="40" as="geometry" />
        </mxCell>
        <mxCell id="2LJcsksbGHfJUZrQtjWJ-11" style="edgeStyle=orthogonalEdgeStyle;rounded=0;orthogonalLoop=1;jettySize=auto;html=1;entryX=1;entryY=0.5;entryDx=0;entryDy=0;" edge="1" parent="1" source="2LJcsksbGHfJUZrQtjWJ-8" target="2LJcsksbGHfJUZrQtjWJ-6">
          <mxGeometry relative="1" as="geometry" />
        </mxCell>
        <mxCell id="2LJcsksbGHfJUZrQtjWJ-8" value="&lt;font color=&quot;#ff3333&quot;&gt;正在执行中的执行上下文&lt;/font&gt;" style="text;html=1;align=center;verticalAlign=middle;resizable=0;points=[];autosize=1;strokeColor=none;fillColor=none;" vertex="1" parent="1">
          <mxGeometry x="660" y="145" width="160" height="30" as="geometry" />
        </mxCell>
        <mxCell id="2LJcsksbGHfJUZrQtjWJ-10" style="edgeStyle=orthogonalEdgeStyle;rounded=0;orthogonalLoop=1;jettySize=auto;html=1;exitX=1;exitY=0.5;exitDx=0;exitDy=0;entryX=0.5;entryY=0;entryDx=0;entryDy=0;entryPerimeter=0;" edge="1" parent="1" source="2LJcsksbGHfJUZrQtjWJ-9" target="2LJcsksbGHfJUZrQtjWJ-1">
          <mxGeometry relative="1" as="geometry" />
        </mxCell>
        <mxCell id="2LJcsksbGHfJUZrQtjWJ-9" value="执行栈" style="text;html=1;strokeColor=none;fillColor=none;align=center;verticalAlign=middle;whiteSpace=wrap;rounded=0;" vertex="1" parent="1">
          <mxGeometry x="390" y="225" width="60" height="30" as="geometry" />
        </mxCell>
        <mxCell id="2LJcsksbGHfJUZrQtjWJ-15" value="" style="curved=1;endArrow=classic;html=1;rounded=0;fontColor=#FF3333;" edge="1" parent="1">
          <mxGeometry width="50" height="50" relative="1" as="geometry">
            <mxPoint x="400" y="80" as="sourcePoint" />
            <mxPoint x="530" y="130" as="targetPoint" />
            <Array as="points">
              <mxPoint x="470" y="80" />
              <mxPoint x="500" y="80" />
            </Array>
          </mxGeometry>
        </mxCell>
        <mxCell id="2LJcsksbGHfJUZrQtjWJ-16" value="" style="curved=1;endArrow=classic;html=1;rounded=0;fontColor=#FF3333;" edge="1" parent="1">
          <mxGeometry width="50" height="50" relative="1" as="geometry">
            <mxPoint x="580" y="120" as="sourcePoint" />
            <mxPoint x="730" y="100" as="targetPoint" />
            <Array as="points">
              <mxPoint x="630" y="70" />
              <mxPoint x="680" y="70" />
            </Array>
          </mxGeometry>
        </mxCell>
        <mxCell id="2LJcsksbGHfJUZrQtjWJ-18" value="后进" style="text;html=1;align=center;verticalAlign=middle;resizable=0;points=[];autosize=1;strokeColor=none;fillColor=none;fontColor=#FF3333;" vertex="1" parent="1">
          <mxGeometry x="425" y="45" width="50" height="30" as="geometry" />
        </mxCell>
        <mxCell id="2LJcsksbGHfJUZrQtjWJ-19" value="先出" style="text;html=1;align=center;verticalAlign=middle;resizable=0;points=[];autosize=1;strokeColor=none;fillColor=none;fontColor=#FF3333;" vertex="1" parent="1">
          <mxGeometry x="630" y="40" width="50" height="30" as="geometry" />
        </mxCell>
      </root>
    </mxGraphModel>
  </diagram>
</mxfile>
